<svg width="104" height="113" viewBox="0 0 104 113" fill="none" xmlns="http://www.w3.org/2000/svg">
<path d="M30.4597 99.0926C43.8699 106.814 65.5779 94.3032 78.9459 71.1483C92.3139 47.9934 92.2796 22.963 78.8694 15.2413" stroke="#FFEB3B" stroke-width="3"/>
<path d="M74.2185 99.3477C87.93 91.5434 88.186 66.3629 74.7904 43.1056C61.3947 19.8483 39.4201 7.32117 25.7086 15.1255" stroke="#81C784" stroke-width="3"/>
<path d="M2.22171 54.4289C2.34399 69.5445 24.4842 81.8718 51.6732 81.9629C78.8622 82.0539 100.804 69.8742 100.682 54.7587" stroke="#5E92F3" stroke-width="3"/>
<path d="M14.752 54.88C14.752 47.968 16.336 41.92 19.504 36.736C22.768 31.552 27.136 27.52 32.608 24.64C38.176 21.76 44.464 20.32 51.472 20.32C58.48 20.32 64.768 21.76 70.336 24.64C75.904 27.52 80.272 31.552 83.44 36.736C86.704 41.92 88.336 47.968 88.336 54.88C88.336 61.696 86.704 67.744 83.44 73.024C80.272 78.208 75.904 82.24 70.336 85.12C64.768 88 58.48 89.44 51.472 89.44C44.464 89.44 38.176 88 32.608 85.12C27.136 82.24 22.768 78.208 19.504 73.024C16.336 67.744 14.752 61.696 14.752 54.88ZM33.904 54.88C33.904 60.448 35.584 64.96 38.944 68.416C42.4 71.872 46.576 73.6 51.472 73.6C56.368 73.6 60.496 71.872 63.856 68.416C67.312 64.96 69.04 60.448 69.04 54.88C69.04 49.216 67.312 44.704 63.856 41.344C60.496 37.888 56.368 36.16 51.472 36.16C46.576 36.16 42.4 37.888 38.944 41.344C35.584 44.704 33.904 49.216 33.904 54.88Z" fill="#1565C0"/>
<path d="M14.752 54.88C14.752 47.968 16.336 41.92 19.504 36.736C22.768 31.552 27.136 27.52 32.608 24.64C38.176 21.76 44.464 20.32 51.472 20.32C58.48 20.32 64.768 21.76 70.336 24.64C75.904 27.52 80.272 31.552 83.44 36.736C86.704 41.92 88.336 47.968 88.336 54.88C88.336 61.696 86.704 67.744 83.44 73.024C80.272 78.208 75.904 82.24 70.336 85.12C64.768 88 58.48 89.44 51.472 89.44C44.464 89.44 38.176 88 32.608 85.12C27.136 82.24 22.768 78.208 19.504 73.024C16.336 67.744 14.752 61.696 14.752 54.88ZM33.904 54.88C33.904 60.448 35.584 64.96 38.944 68.416C42.4 71.872 46.576 73.6 51.472 73.6C56.368 73.6 60.496 71.872 63.856 68.416C67.312 64.96 69.04 60.448 69.04 54.88C69.04 49.216 67.312 44.704 63.856 41.344C60.496 37.888 56.368 36.16 51.472 36.16C46.576 36.16 42.4 37.888 38.944 41.344C35.584 44.704 33.904 49.216 33.904 54.88Z" fill="#1565C0"/>
<path d="M74.4544 99.2153C61.0789 106.828 39.377 94.1467 25.9817 70.8901C12.5865 47.6334 12.5704 22.6085 25.9459 14.9954" stroke="#81C784" stroke-width="3"/>
<path d="M30.6863 99.2306C17.6047 91.6982 17.8373 66.8204 31.2058 43.6646C44.5743 20.5087 66.0163 7.84353 79.0979 15.376" stroke="#FFEB3B" stroke-width="3"/>
<path d="M2.22283 54.6983C2.09975 39.9533 24.0404 28.0716 51.2286 28.1598C78.4169 28.2481 100.557 40.2728 100.68 55.0179" stroke="#5E92F3" stroke-width="3"/>
</svg>
